<svg id="Ebene_1" data-name="Ebene 1" xmlns="http://www.w3.org/2000/svg" viewBox="0 0 3649.49 3475.91"><defs><style>.cls-1{fill:#fff;}</style></defs><title>trekdiner</title><g id="Ebene_2" data-name="Ebene 2"><path class="cls-1" d="M3485.17,2175.1c2.35,0.76,3.91.76,4.69,2.28a7.22,7.22,0,0,1,3.91.76c11.74,3,32.08,9.13,42.25-.76,7-7.61,9.39-18.27,12.52-27.4,6.26-17.51,10.17-35,14.87-51.76,3.91-19,7.82-38.82,9.39-57.85,0.78-8.37,2.35-19,0-27.4-6.26-14.46-31.3-16.75-45.38-18.27h-0.78s0-1.52-.78-1.52h0c-12.52-1.52-36.78-6.85-48.51,2.28-4.69,3.81-6.26,10.66-7.82,16-4.69,13.7-7,28.16-10.17,42.62a50.45,50.45,0,0,0-1.57,11.42c-1.56,3.81-3.13,6.85-3.91,11.42-3.91,19.79-9.39,39.58-14.08,57.85-18-3.81-35.21-7.61-53.21-12.94,0.78-2.28,1.56-5.33,2.35-8.37,1.56-6.09,3.13-12.94,5.48-19.79a140.6,140.6,0,0,0,3.91-17.51c0.78-3.81,1.56-6.85,2.35-9.9a49.79,49.79,0,0,1,3.91-14.46c0.78-3.81,1.56-8.37,2.35-12.18,3.91-22.83,9.39-46.43,14.87-68.5,3.91-11.42,7-25.12,16.43-34.25,7.82-6.85,19.56-7.61,29.73-8.37,22.69-1.52,45.38.76,68.08,3h0.78c21.91,3,45.38,6.09,66.51,13.7,10.17,3,20.34,7.61,25.82,17.51,7,16,5.48,35,3.13,51-2.35,32.73-7.82,63.94-14.87,95.14-10.17,44.15-20.34,92.1-40.69,133.2-8.61,16-18.78,22.83-36.78,18.27-2.35-.76-3.91-0.76-5.48-1.52-1.56,0-2.35-.76-3.91-2.28a11.54,11.54,0,0,1-5.48-1.52c-1.56-.76-3.91-0.76-5.48-1.52-61.82-19-142.41-45.67-204.23-63.94-3.13-1.52-5.48-2.28-9.39-3.81a64.87,64.87,0,0,0-8.61-2.28c-14.87-3.81-57.9-15.22-64.16-32-1.56-9.13,1.56-19.79,3.91-28.16,3.91-20.55,9.39-40.34,14.08-60.13a118.9,118.9,0,0,0,3.91-16,69.85,69.85,0,0,0,4.69-18.27l4.7-20.55c0.78-7.61,3.13-15.22,4.69-22.83,3.91-20.55,7-42.62,11-63.18,0.78-9.9,2.35-18.27,3.13-28.16,18.78,2.28,36.78,3.81,54.77,6.09-1.56,9.9-2.35,19.79-3.91,29.69-3.13,22.07-7,45.67-11.74,67.74a131.92,131.92,0,0,1-4.7,21.31c-0.78,7.61-2.35,13.7-3.91,20.55-0.78,4.57-2.35,9.9-3.13,14.46a40.92,40.92,0,0,1-3.91,12.94c-3.13,14.46-10.17,32-10.17,47.19,0.78,7.61,11,9.9,17.21,12.18a6,6,0,0,1,3.13.76h3.13c8.61,2.28,50.86,18.27,59.47,20.55,20.34,5.33,39.91,10.66,60.25,16,7.82,1.52,16.43,4.57,23.47,6.09,7.82,1.52,15.65,3.81,21.91,5.33h0Zm107.2-526c-55.56,3-111.11,5.33-165.89,7.61-0.78-19-3.13-38.82-4.69-58.61,73.55-5.33,147.11-12.18,220.66-19,0.78,9.13,2.35,17.51,3.13,26.64,0.78,19,2.35,38.82,2.35,57.85,0.78,19,1.56,36.54,1.56,55.56v30.45c-0.78,31.21-1.56,36.54-6.26,67.74-2.35,16.75-3.91,35.77-12.52,50.24-14.08,20.55-44.6,29.68-66.51,28.92,0-.76-1.56-79.92-1.56-79.92h5.48c1.56,0,3.91,0,5.48.76,8.61,0,13.3-6.85,14.87-13.7,6.26-27.4,4.69-28.92,5.48-57.09v-48.71c-0.78-10.66-.78-22.07-0.78-33.49a99.26,99.26,0,0,1-.78-15.22h0Zm45.38-104.28c-54.77,6.09-110.33,10.66-165.89,16.75h-5.48a15.68,15.68,0,0,1-5.48.76c-11.74.76-32.86,3.81-40.69-7.61-3.91-9.13-4.7-19.79-6.26-28.92-3.91-18.27-3.13-18.27-5.48-35.77a212.8,212.8,0,0,0-3.91-23.6c-2.35-9.13-3.91-17.51-5.48-25.88a185.55,185.55,0,0,0-3.91-22.07c-1.56-6.85-3.13-13.7-4.69-19.79-4.69-19-7-23.6-11.74-42.62-2.35-9.9-5.48-21.31-3.91-32,3.13-15.22,29.73-21.31,43-25.12,53.21-16,106.42-31.21,158.84-47.19,7,21.31,13.3,42.62,18.78,65.46-44.6,10.66-90,22.07-134.59,33.49h0c-7.82,1.52-20.34,4.57-21.91,12.94-0.78,17.51,4.7,21.31,8.61,38.06,0.78,3.81,1.56,9.13,2.35,12.94a105.19,105.19,0,0,1,3.13,15.22c0.78,5.33,3.13,10.66,3.91,16l2.35,13.7c2.35,16.75.78,15.22,5.48,32,3.13,6.09,8.61,8.37,15.65,6.85h2.35c0.78-.76,1.56-0.76,3.13-0.76a6.05,6.05,0,0,1,3.13-.76c0.78,0,2.35,0,3.13-.76,45.38-5.33,92.33-11.42,137.72-18.27,3.13,22.83,6.26,44.91,7.82,67h0ZM3376.4,1027.28h-0.78c-11.74,5.33-36,14.46-39.91,28.92-0.78,6.09,1.56,13.7,3.91,20.55,5.48,11.42,10.17,22.83,15.65,34.25a73.17,73.17,0,0,0,4.69,10.66l4.7,21.31a100,100,0,0,1,5.48,13.7,33.07,33.07,0,0,1,4.69,12.18c1.56,3,2.35,6.85,3.91,9.9,3.91,8.37,8.61,23.6,18,27.4,11,1.52,23.47-4.57,33.65-7.61l7-2.28c1.56-1.52,3.91-2.28,6.26-3s3.91-.76,5.48-1.52,3.13-.76,3.91-1.52c11-3,32.08-9.13,36-20.55,0.78-7.61-3.13-16-4.69-22.83-3.91-13.7-2.35-20.55-8.61-34.25a90.66,90.66,0,0,0-3.91-10.66c-1.56-3.81-3.13-6.85-4.69-11.42-8.61-19.79-18-39.58-27.39-59.37,17.21-8.37,32.86-15.22,50.08-22.83,1.56,3,3.13,6.85,4.69,9.13,3.91,7.61,7,14.46,10.17,21.31,2.35,6.85,6.26,12.94,8.61,19.79,1.56,3.81,3.13,7.61,5.48,10.66v1.52a0.76,0.76,0,0,1,.78.76c12.52,29.69,17.21,54,25.82,85.25,5.48,15.22,11,33.49,9.39,50.24-5.48,24.36-43,33.49-64.16,39.58-4.69.76-8.61,2.28-12.52,3-4.69,1.52-8.61,2.28-14.08,3.81-4.69,1.52-10.17,3.81-14.87,5.33a67.53,67.53,0,0,0-13.3,3.81c-16.43,5.33-32.08,9.9-49.3,11.42-7.82.76-16.43,1.52-22.69-2.28-8.61-6.85-12.52-18.27-17.21-28.16-8.61-19-14.87-37.3-22.69-56.33-2.35-6.85-5.48-12.94-7.82-19l-11.74-37.3c-2.35-6.85-5.48-12.18-9.39-19-8.61-16.75-16.43-34.25-24.26-51.76-4.69-9.13-9.39-19.79-10.17-29.69,0-15.22,24.26-27.4,36.78-33.49C3363.1,963.34,3428,929.09,3493,895.6c11,19.79,21.91,40.34,32.86,60.89a299.31,299.31,0,0,0-27.39,12.94c-19.56,9.13-39.91,19-60.25,28.16-11,5.33-21.91,10.66-32.86,15.22-9.39,5.33-19.56,9.13-29,14.46h0Zm-38.34-268.69c7,9.13,9.39,12.94,14.87,20.55,4.69,8.37,10.17,17.51,14.87,27.4,8.61,18.27,9.39,26.64,11,46.43,0,5.33,1.57,12.94,0,17.51-3.91,14.46,0-15.22-2.35,6.85-7,38.06-40.69,60.13-72.77,77.64-24.26,12.18-49.3,24.36-72.77,37.3L3200.34,942c25-12.94,48.51-26.64,72-40.34,17.21-10.66,33.65-23.6,39.12-44.15,2.35-15.22,5.48-19.79,0-34.25-2.35-7.61-6.26-14.46-10.17-20.55l-20.34-37.3c-7-9.13-13.3-18.27-20.34-26.64-3.13-3.81-7-7.61-10.17-12.18-43.82,32.73-86.86,65.46-131.46,98.19-12.52-16-25-31.21-37.56-46.43,56.34-44.91,113.46-91.34,169.8-136.25,6.26,6.09,11.74,12.94,17.21,19.79,12.52,14.46,25,29.68,36.78,44.91,11,15.22,6.26,14.46,17.21,28.92,4.69,7.61,11,15.22,15.65,22.83h0ZM2960.12,658.12c-6.26-5.33-12.52-11.42-18-16-6.26-6.09-12.52-10.66-17.21-16-15.65-12.18-29.73-24.36-43.82-36.54-7.82-6.85-16.43-14.46-21.13-23.6-6.26-14.46,11.74-34.25,20.34-44.91,23.47-27.4,46.17-55.56,68.86-83,11-13.7,27.39-30.45,47.73-24.36,15.65,6.85,30.52,18.27,43.82,28.16,25,19.79,50.08,41.1,73.55,63.18s38.34,32,59.47,57.09c11,12.18,23.47,25.12,31.3,41.1,6.26,19-10.17,34.25-23.47,45.67-21.13,17.51-36,31.21-57.12,48-3.91-4.57-9.39-9.9-13.3-13.7-30.52-35-54.77-54.8-88.42-86.77a82.73,82.73,0,0,0-8.61-6.85c-4.69-4.57-10.17-9.13-14.87-13.7s-12.52-10.66-18-15.22c-2.35-1.52-4.69-4.57-7-6.09,12.52-13.7,14.87-12.94,27.39-25.88,41.47,35,73.55,60.89,111.11,98.95,0.78,0,.78,0,1.56-0.76,2.35-2.28,6.26-4.57,9.39-8.37,4.69-4.57,6.26-20.55,3.13-25.88-16.43-22.07-30.52-29.68-51.64-48.71a478.55,478.55,0,0,0-42.25-36.54c-8.61-6.09-16.43-12.94-26.6-15.22-16.43-2.28-31.3,17.51-40.69,27.4-8.61,9.9-28.17,26.64-26.6,41.86,1.56,5.33,7.82,11.42,12.52,16,8.61,9.13,18,17.51,27.39,25.88a46.49,46.49,0,0,1,9.39,8.37,55,55,0,0,1,10.17,9.13c38.34,35,64.16,59.37,98.59,97.43-14.08,11.42-27.39,23.6-42.25,35-6.26-8.37-13.3-16-20.34-23.6-14.08-15.22-21.13-18.27-36-34.25-7-6.85-13.3-12.94-19.56-19.79-7-5.33-12.52-11.42-18.78-17.51h0ZM2841.19,490.67c-8.61,10.66-23.47,32-40.69,29.69-10.17-3.81-20.34-9.9-29-16-16.43-9.89-33.65-21.31-50.86-32-5.48-3.81-11.74-7.61-17.21-11.42-7-4.57-14.08-8.37-20.34-12.18-4.69-3.81-9.39-6.09-14.87-9.13-4.7-3-8.61-6.09-14.08-8.37-18.78-10.66-20.34-12.18-39.12-25.12-9.39-6.09-21.13-13.7-26.6-25.12-2.35-9.13.78-19.79,3.91-28.92,7-21.31,17.21-41.1,27.39-60.89s21.13-39.58,36-55.56c7-8.37,15.65-16.75,27.39-18.27,18-.76,35.21,8.37,51.64,14.46,30.52,13.7,40.69,19.79,68.08,37.3,3.91,1.52,7,3.81,10.17,5.33,7,4.57,12.52,8.37,19.56,12.94a151,151,0,0,1,20.34,12.94c2.35,1.52,6.26,3,8.61,6.09-10.17,14.46-21.13,28.92-31.3,44.15-18.78-12.18-38.34-24.36-57.12-36.54-16.43-9.9-14.87-9.9-32.08-17.51-8.61-5.33-18.78-9.9-29-10.66-16.43.76-27.39,22.07-35.21,34.25h0v0.76h-0.78c-5.48,11.42-20.34,31.21-14.87,44.91,3.13,6.09,10.17,11.42,15.65,14.46,10.17,7.61,3.91,3.81,14.87,10.66,3.13,2.28,6.26,3.81,10.17,6.85,3.91,1.52,7,3.81,11,5.33,3.91,2.28,7,5.33,11.74,7.61a60.38,60.38,0,0,1,10.17,6.85c11,6.09,21.91,13.7,33.65,20.55,4.69,3,11.74,6.85,18.78,7.61,11.74,0.76,21.91-16,26.6-23.6,1.56-1.52,3.91-3.81,4.69-6.09,1.56-1.52,3.13-3.81,4.69-5.33,6.26-8.37,11.74-16.75,18.78-25.88s14.08-19,21.91-28.16c12.52-17.51,25.82-35,39.12-52.52,5.48-7.61,11.74-16,17.21-23.6,19.56,12.94,38.34,27.4,57.9,41.1-45.38,56.33-91.55,112.65-136.93,169h0Zm-250.39-389c21.91,9.13,43.82,18.27,65.73,28.16-40.69,80.68-79.81,160.6-119.72,241.29-18-9.13-36.78-16.75-54.77-24.36,36-82.21,72.77-163.65,108.76-245.09h0ZM2435.08,187a33.08,33.08,0,0,1,4.69-12.18c1.56-3.81,2.35-6.85,3.91-11.42,6.26-12.94,17.21-33.49,11-48-2.35-5.33-9.39-8.37-14.08-11.42a232.21,232.21,0,0,0-41.47-16c-21.91-7.61-45.38-13.7-68.08-20.55-15.65-3.81-44.6-13.7-59.47-3-7,5.33-10.17,14.46-13.3,22.83-5.48,13.7-9.39,28.92-13.3,42.62-3.13,15.22-7.82,29.69-10.17,45.67-0.78,6.85-3.13,16-.78,23.6,4.69,12.18,26.6,16,37.56,19,2.35,0.76,3.91.76,6.26,1.52a23.39,23.39,0,0,0,7,1.52c20.34,6.09,41.47,12.18,61.82,18.27a33.77,33.77,0,0,0,9.39,3,54.83,54.83,0,0,1,7.82,3l7,2.28a55,55,0,0,0,6.26,2.28c7.82,2.28,21.91,7.61,29,.76C2416.3,239.48,2421,222,2425.69,209c1.56-3,3.13-7.61,4.69-10.66a87.24,87.24,0,0,1,4.7-11.42h0Zm-252.74-70c6.26-26.64,11.74-53.28,21.91-79.16,4.69-11.42,9.39-23.6,19.56-32,11.74-6.85,26.6-6.09,38.34-5.33,28.17,2.28,56.34,8.37,84.51,16,23.47,6.85,46.17,12.94,69.64,20.55,29,9.13,57.12,19,83.73,32.73,11,6.09,24.26,11.42,30.52,22.07,4.69,9.13,3.13,19.79.78,28.92-4.7,20.55-12.52,39.58-21.13,58.61-2.35,5.33-4.7,9.13-6.26,13.7a160.79,160.79,0,0,0-7.82,16.75,183.09,183.09,0,0,1-7.82,18.27,97.79,97.79,0,0,0-6.26,16,495.62,495.62,0,0,1-26.6,54c-3.91,6.85-9.39,15.22-16.43,19.79-7.82,2.28-17.21.76-25.82-.76a494.69,494.69,0,0,1-54-17.51c-3.91-1.52-9.39-2.28-13.3-4.57-6.26-1.52-11-3.81-17.21-5.33-19.56-6.09-39.12-11.42-59.47-17.51-4.69-1.52-10.17-2.28-14.87-3.81a78.43,78.43,0,0,1-12.52-3.81c-18-3.81-36.78-8.37-53.21-16-7.82-3-16.43-8.37-20.34-16-4.69-12.18-1.56-27.4,0-41.1,3.13-24.36,8.61-50.24,14.08-74.59h0ZM1587.65,80.4c8.61,52.52,17.21,105.8,25.82,157.56-19.56,3-39.91,6.09-60.25,10.66-14.08-69.26-28.17-139.29-42.25-208.56,8.61-1.52,18-3,26.6-4.57,18.78-4.57,39.12-7.61,58.69-9.9l79-5.33h1.56c32.86-2.28,65.73-4.57,98.59-4.57,17.21,0.76,36.78,0,53.21,6.09,23.47,12.18,21.13,48.71,21.13,70h-32.86c-8.61,0-15.65.76-23.47,0.76-3.13,0-7,0-10.17,1.52V88c0-1.52-.78-3-0.78-5.33,0-7.61-7-12.18-15.65-12.94-28.17-2.28-57.9,1.52-86.86,4.57-5.48.76-12.52,1.52-18.78,2.28l-57.12,1.52c-6.26.76-11,1.52-16.43,2.28h0ZM1384.21,294.29c-8.61,3-17.21,6.09-25,8.37-7,2.28-14.87,4.57-21.13,6.85-18.78,6.85-37.56,12.94-56.34,19-9.39,3-20.34,6.85-30.52,6.85-16.43-2.28-25.82-25.88-31.3-38.06-14.08-33.49-28.17-66.22-43-98.19-6.26-16-13.3-38.06.78-51,14.87-10.66,31.3-17.51,47.73-23.6a844.08,844.08,0,0,1,93.12-32.73c31.3-9.9,45.38-15.22,77.47-22.07,17.21-3.81,35.21-8.37,53.21-6.09,20.34,2.28,26.6,23.6,30.52,41.1,6.26,25.12,8.61,42.62,14.08,67.74a96.28,96.28,0,0,1-18.78,4.57c-46.95,10.66-73.55,19.79-119.72,33.49a74.19,74.19,0,0,0-10.17,3,157.75,157.75,0,0,1-20.34,6.09c-6.26,2.28-14.08,4.57-21.13,7.61a67,67,0,0,0-9.39,3c-5.48-17.51-7.82-16.75-14.08-32.73,52.43-18.27,87.64-31.21,142.41-44.91-0.78-.76-0.78-0.76-0.78-1.52a49,49,0,0,1-3.13-11.42c-2.35-6.85-10.17-17.51-16.43-16.75-29,4.57-39.91,12.18-67.29,19.79-18,6.09-36,12.18-54,19-9.39,3.81-20.34,7.61-26.6,15.22-10.17,12.18,0,35,4.69,47.19,5.48,12.18,11.74,36.54,25,41.86,7,1.52,14.87-1.52,21.13-3A186.35,186.35,0,0,0,1342,252.42c3.91-1.52,8.61-2.28,11.74-3.81,5.48-1.52,9.39-2.28,14.08-4.57,50.08-14.46,82.94-25.12,133.8-35.77,4.69,17.51,7.82,34.25,11.74,51.76a219.77,219.77,0,0,0-30.52,6.85c-21.91,4.57-43.82,9.9-64.95,15.22-9.39,2.28-18.78,5.33-26.6,7.61-8.61,2.28.78,2.28-7,4.57h0ZM962.45,242.53c8.61-3.81,16.43-9.13,25-12.18a218.48,218.48,0,0,1,28.17-11.42c27.39-9.13,56.34-10.66,85.29-5.33,38.34,9.9,58.69,44.91,72.77,76.88,10.17,24.36,21.13,49.48,31.3,73.07-18.78,8.37-37.56,16.75-54.77,25.12-12.52-24.36-24.26-48-36-71.55-9.39-17.51-20.34-35.77-40.69-42.62-14.87-3.81-30.52-4.57-46.17-.76-7,2.28-14.08,4.57-21.13,7.61a119.13,119.13,0,0,0-17.21,8.37l-50.86,28.16c-3.91,2.28-8.61,4.57-13.3,8.37,29,44.15,58.69,89.06,86.86,134.72-16.43,9.9-33.65,20.55-50.08,31.21C920.2,433.58,878.73,375,837.25,317.12a229.21,229.21,0,0,0,20.34-13.7c17.21-10.66,35.21-21.31,53.21-32l51.64-28.92h0ZM686.24,423.68a237.63,237.63,0,0,1,25.82-16c25.82-15.22,53.21-22.07,83.73-20.55,39.12,2.28,64.95,32,86.07,60.89,15.65,22.07,30.52,44.15,45.38,65.46-15.65,11.42-32.86,22.83-48.51,34.25-16.43-21.31-32.86-42.62-49.3-63.18-12.52-15.22-28.17-30.45-49.3-32.73-14.87-1.52-31.3.76-45.38,7.61-7,2.28-12.52,6.09-18.78,10.66l-57.12,52.52c-4.69,3-7.82,7.61-11.74,10.66,37.56,38.82,75.9,76.88,114.24,114.93-15.65,13.7-29.73,27.4-44.6,41.1-52.43-48.71-104.85-98.19-158.06-147.66l19.56-19c13.3-12.94,28.17-26.64,43-39.58l64.95-59.37h0ZM440.54,591.9c16.43-17.51,32.08-35,48.51-51.76,6.26,5.33,13.3,12.18,20.34,17.51-16.43,16.75-32.86,34.25-47.73,51.76-7.82-6.09-14.08-12.18-21.13-17.51h0Zm42.25,34.25c14.87-16.75,30.52-33.49,46.17-50.24,54.77,48.71,108,96.67,162,145.38-14.87,14.46-28.17,29.69-41.47,44.15C593.9,719,537.56,672.58,482.79,626.15h0ZM579,763.92c11,8.37,32.08,23.6,29,40.34-3.13,9.89-11,18.27-17.21,26.64-11.74,16-24.26,32-36,47.19-4.69,6.09-8.61,10.66-12.52,16.75-4.69,6.09-9.39,12.94-14.08,19l-36,52.52c-7.82,9.13-16.43,20.55-27.39,25.12-10.17,3-21.13-1.52-30.52-3.81-21.91-7.61-42.25-18.27-61-28.92-20.34-10.66-40.69-22.07-57.9-37.3-7.82-6.85-14.87-15.22-17.21-25.88,0-17.51,10.17-35,18-49.48l51.64-81.44c3.91-6.85,9.39-12.18,14.08-19,2.35-2.28,4.69-6.09,7-8.37,14.08,10.66,29.73,21.31,43.82,32l-50.08,73.07c-4.69,7.61-11,17.51-11.74,27.4,0,16,21.91,27.4,34.43,34.25v0.76h0.78c11.74,6.09,32.08,21.31,46.17,16.75,6.26-3,11-9.9,15.65-14.46l14.87-22.83c2.35-3.81,4.69-7.61,8.61-10.66a43,43,0,0,1,6.26-9.9c7.82-9.9,16.43-20.55,23.47-31.21,3.91-6.09,7.82-12.18,10.17-18.27,0.78-11.42-16.43-21.31-24.26-27.4-2.35-1.52-3.91-2.28-5.48-3.81a32.6,32.6,0,0,0-6.26-4.57c-8.61-6.09-16.43-12.94-25-19-9.39-6.85-19.56-14.46-29.73-22.07-17.21-12.94-34.43-25.88-52.43-39.58-7.82-5.33-14.87-11.42-23.47-17.51,14.87-18.27,30.52-36.54,45.38-54,56.34,45.67,112.68,91.34,169,137.77h0ZM299.69,1445.15a147.4,147.4,0,0,0-4.69,24.36,203.5,203.5,0,0,0-3.91,21.31c-3.91,19.79-7,38.82-10.17,57.09-3.13,9.9-3.91,21.31-9.39,29.69-9.39,13.7-36.78,9.13-50.08,7.61-36.78-3-73.55-7.61-109.55-10.66-18-1.52-41.47-6.09-46.95-25.88-2.35-16,0-34.25,1.56-51,3.91-31.21,9.39-63.18,16.43-94.38,7-30.45,4.69-51.76,14.08-81.44,5.48-16,10.17-32,19.56-46.43,12.52-14.46,36.78-12.94,53.21-7.61,26.6,6.85,46.17,13.7,72,22.07-2.35,6.09-3.91,12.94-7,20.55-12.52,41.86-14.08,76.12-24.26,119.5a58.18,58.18,0,0,1-1.56,10.66c-1.56,6.09-2.35,12.18-4.69,19-0.78,6.85-2.35,13.7-3.13,20.55-0.78,3.81-1.56,7.61-2.35,12.18-18-3-20.34-2.28-38.34-6.09,9.39-51.76,11-95.14,25.82-146.14-0.78,0-.78,0-1.56-0.76a75,75,0,0,1-12.52-3c-6.26-1.52-20.34,0-22.69,6.85-10.17,25.88-5.48,44.91-11.74,70.79-3.91,19-7.82,38.06-9.39,57.85-0.78,9.13-2.35,19,0,26.64,7,15.22,32.08,17.51,46.17,19,13.3,2.28,38.34,8.37,50.08-1.52,6.26-5.33,7.82-16,9.39-23.6a234,234,0,0,0,7-32c0.78-4.57,1.56-8.37,2.35-12.94,0.78-3.81,1.56-7.61,2.35-12.94,11-48.71,14.87-88.29,29.73-136.25,18,5.33,35.21,10.66,52.43,15.22-3.13,9.9-5.48,19.79-9.39,29.69-9.39,32.73-11.74,69.27-18.78,102h0ZM102.5,1827.25c55.56-3,110.33-6.85,165.89-9.9,0.78,19.79,2.35,38.82,3.91,58.61-73.55,6.09-146.32,13.7-219.88,21.31-0.78-9.13-1.56-18.27-2.35-26.64-1.56-19-3.13-38.82-4.69-57.09-0.78-19-.78-37.3-1.56-56.33v-30.45c0.78-31.21,0-28.92,3.13-60.13,3.13-16.75,4.69-35,13.3-50.24,14.08-21.31,52.43-15.22,74.34-13.7a9.42,9.42,0,0,0-.78,4.57,64,64,0,0,0-.78,11.42,36.36,36.36,0,0,0-.78,8.37c-1.56,2.28-1.56,5.33-1.56,7.61-0.78,7.61-.78,14.46-1.56,22.07,0,3-.78,6.85-0.78,9.9H118.15c-9.39-.76-13.3,6.09-15.65,13.7l-3.13,56.33v10.66c0,9.9,1.56,20.55,1.56,30.45,0,10.66.78,22.07,0.78,33.49a104.3,104.3,0,0,1,.78,16h0ZM87.64,2128.67c10.17,43.39,21.91,86,36,129.4-18,5.33-36,10.66-53.21,16C35.21,2162.92,12.52,2057.12,0,1941.43c18.78-2.28,37.56-3.81,54.77-5.33,5.48,44.15,11,82.2,18.78,126.35,72.77-12.94,145.54-25.88,218.31-39.58,3.13,19.79,7.82,38.82,11.74,57.85-72,16.75-144,32-216,48h0Zm2871.7,936.22c0-3.81-.78-7.61-1.56-12.18l-2.35-13.7a2.75,2.75,0,0,1-.78-2.28c0-1.52-.78-2.28-0.78-3-2.35-8.37-4.69-16-7.82-24.36-1.57-3-3.13-9.9-9.39-12.18a47,47,0,0,0-6.26-3,38.71,38.71,0,0,1-5.48-2.28c-9.39-3.81-26.6-11.42-39.91-9.13a171.76,171.76,0,0,0-21.13,11.42c-11,7.61-21.91,15.22-32.86,23.6h-0.78l-0.78.76c-17.21,11.42-36,22.83-50.08,35-3.91,4.57-3.13,7.61,2.35,9.9,4.69,2.28,21.13,6.85,26.6,5.33,13.3-6.09,10.17-5.33,21.13-12.18,2.35-3,5.48-4.57,9.39-6.85a132.72,132.72,0,0,1,11-7.61c12.52-9.13,20.34-12.94,32.86-22.83,16.43,7.61,32.86,13.7,50.08,20.55a43.32,43.32,0,0,0-6.26,4.57c-3.91,3.81-9.39,6.85-13.3,9.9-4.69,3-8.61,6.09-12.52,9.13L2885,3072.5c-3.91,3-8.61,6.09-12.52,9.13-14.08,9.13-15.65,9.13-30.52,18.27-7.82,3.81-17.21,9.9-27.39,12.18a51,51,0,0,1-18.78-1.52c-12.52-3-33.65-11.42-42.25-16.75-7.82-3.81-15.65-6.85-23.47-11.42-12.52-6.85-32.86-17.51-26.6-28.16,4.7-6.85,15.65-13.7,25-20.55,17.21-12.18,34.43-24.36,52.43-36.54,18-12.94,36-25.88,54-38.06,10.17-6.85,19.56-13.7,32.86-18.27,7.82-2.28,15.65-1.52,24.26-.76,14.08,2.28,27.39,7.61,39.91,12.18l7,2.28a24.43,24.43,0,0,0,7.82,3.81c2.35,0.76,3.91,1.52,7,2.28a14.82,14.82,0,0,0,5.48,1.52,54.93,54.93,0,0,1,6.26,2.28,6.84,6.84,0,0,0,4.69,2.28c3.91,1.52,7,2.28,9.39,3.81,3.13,1.52,6.26,2.28,8.61,3.81,7,5.33,11,9.9,14.08,16,6.26,9.13,8.61,19,10.17,28.16a73.34,73.34,0,0,1,3.91,12.18c0.78,3.81,1.56,8.37,3.13,12.18,2.35,13.7,4.7,25.88,7,38.06,0.78,3.81.78,8.37,1.56,11.42,0,2.28,1.56,3.81.78,6.85-20.34,13.7-40.69,26.64-61,41.1-1.56-25.88-3.91-50.24-8.61-75.35h0ZM2724.6,3222.45c3.91-3,19.56-18.27,22.69-28.16,3.91-15.22-7.82-28.92-27.39-39.58-20.34-9.9-43-16-69.64-14.46-7.82,0-20.34,2.28-27.39,3.81-1.56,0-44.6,16-45.38,16.75,0,0-20.34,17.51-24.26,28.16-4.7,14.46,4.69,27.4,21.91,39.58,17.21,11.42,39.12,18.27,67.29,17.51,14.08,0,25.82-4.57,39.12-8.37,12.52-3,38.34-12.18,43-15.22h0Zm-11.74,46.43c-24.26,6.09-42.25,9.13-71.21,10.66-11,0-21.91,0-32.86-2.28a168.37,168.37,0,0,1-79.81-32.73c-25.82-19.79-42.25-42.62-34.43-67.74,6.26-17.51,32.86-38.82,54-52.52,0,0,39.91-16,41.47-16,17.21-5.33,38.34-6.85,56.34-7.61,46.95-1.52,86.07,9.13,119.72,25.12,23.47,13.7,44.6,28.92,49.3,47.19a26.59,26.59,0,0,1,0,19c-2.35,11.42-7.82,24.36-18.78,34.25-10.17,9.13-34.43,24.36-36,25.12-0.78.76-24.26,10.66-47.73,17.51h0ZM2446,3384.58c-0.78.76-50.86,12.94-87.64,9.13a133.8,133.8,0,0,1-31.3-6.09c-30.52-9.13-45.38-25.88-59.47-43.39-16.43-22.07-26.6-44.91-11-69.27,11-13.7,25.82-25.12,46.17-35l31.3-11.42c24.26-7.61,38.34-11.42,69.64-8.37,44.6,3,86.07,21.31,113.46,41.1,19.56,14.46,28.17,29.69,26.6,48.71,0,5.33-3.13,12.18-6.26,17.51-11,16-39.12,37.3-49.3,40.34-0.78.76-42.25,16-42.25,16.75h0Zm9.39-46.43a54.4,54.4,0,0,0,19.56-17.51c10.17-15.22,2.35-28.92-12.52-41.1-16.43-12.94-36-22.07-62.6-23.6a80.78,80.78,0,0,0-30.52,4.57c-1.56.76-30.52,12.18-32.86,13.7,0,0-17.21,11.42-21.91,18.27-10.17,13.7-6.26,28.16,5.48,41.1s29.73,23.6,57.9,26.64a77.63,77.63,0,0,0,37.56-5.33c8.61-2.28,39.12-16.75,39.91-16.75h0Zm-388.89,58.61c-12.52,1.52-24.26,3.81-36,6.09-6.26.76-12.52,2.28-15.65,3.81-3.13,3.81-3.13,6.85-3.13,9.9,0,6.85,2.35,14.46,3.91,20.55a2044,2044,0,0,0,253.52-40.34c8.61,9.9,16.43,20.55,24.26,31.21-108,24.36-219.09,40.34-334.12,48-0.78-1.52-.78-3-1.56-4.57-0.78-4.57-.78-8.37-2.35-12.94-0.78-3-1.56-6.09-2.35-10.66,0-1.52-.78-3.81-0.78-5.33-2.35-14.46-4.69-28.16-3.91-41.86,0.78-6.85.78-13.7,7-18.27,8.61-6.09,22.69-7.61,34.43-9.89,21.13-3.81,42.25-6.09,64.16-9.13,19.56-1.52,37.56-5.33,56.34-8.37,11-1.52,21.91-3,32.08-6.09a58.15,58.15,0,0,0,16.43-4.57c5.48-3,.78-10.66-1.56-16-3.91-3.81-7-10.66-16.43-12.18a109.39,109.39,0,0,0-16.43,1.52c-10.17,2.28-20.34,3.81-30.52,5.33-53.21,8.37-97.81,11.42-152.58,15.22a266.15,266.15,0,0,0-7-34.25c68.86-3.81,126-9.9,191.71-22.83,13.3-3,27.39-4.57,41.47-1.52,7,1.52,12.52,6.09,16.43,9.9,10.17,8.37,18,18.27,25.82,28.16,7,9.13,14.08,19,18,29.69,2.35,5.33,3.13,9.9-1.56,15.22-6.26,4.57-17.21,8.37-27.39,10.66-23.47,6.09-47.73,11.42-72,14.46-19.56,3.81-39.91,6.85-60.25,9.13h0ZM1403,3357.17c19.56-19.79,37.56-40.34,56.34-60.89,9.39-9.89,19.56-19.79,29-29.68,14.87,4.57,31.3,8.37,46.17,12.94-7.82,9.9-16.43,20.55-25,30.45,66.51,16,136.15,29.69,207.36,37.3-4.69,10.66-8.61,22.83-13.3,34.25A2034.24,2034.24,0,0,1,1483.58,3342c-7.82,9.9-16.43,20.55-25,30.45-6.26,8.37-11.74,16.75-8.61,25.88,3.91,5.33,11.74,8.37,18.78,10.66,17.21,6.85,35.21,10.66,54,14.46,18.78,3,33.65,9.9,53.21,8.37,11.74-2.28,24.26-3.81,32.86-7.61a41.49,41.49,0,0,0,15.65-9.13c1.56-2.28,3.13-3.81,3.91-6.09,19.56,3.81,39.91,6.09,59.47,8.37h0v0.76c-1.56,4.57-5.48,7.61-7.82,11.42-5.48,7.61-14.08,13.7-23.47,18.27-16.43,9.13-37.56,13.7-58.69,16.75-32.86,3.81-63.38-3-95.46-9.13-32.08-6.85-64.95-13.7-93.12-26.64-13.3-5.33-25.82-12.18-28.17-22.07-3.13-17.51,7.82-33.49,21.91-49.48h0Zm7-117.22c15.65,4.57,29.73,9.9,46.17,14.46-5.48,5.33-9.39,9.13-13.3,14.46-16.43-4.57-32.86-9.13-48.51-15.22,4.69-4.57,10.17-9.9,15.65-13.7h0Zm-29,27.4c15.65,5.33,32.08,9.9,48.51,15.22-38.34,40.34-77.47,80.68-116.59,120.26-20.34-6.09-40.69-12.18-60.25-19,42.25-38.82,85.29-77.64,128.33-116.46h0Zm-295,53.28c-7.82-3.81-15.65-6.85-23.47-9.9-7-3.81-14.08-6.09-20.34-9.13-17.21-8.37-34.43-16-50.08-25.12-8.61-3.81-18-9.13-23.47-14.46-1.56-4.57,0-7.61,3.91-10.66,5.48-6.85,14.08-12.18,23.47-17.51,28.17-16.75,55.56-32.73,83.73-49.48,12.52-7.61,31.3-18.27,51.64-14.46,13.3,2.28,25.82,9.13,37.56,13.7,23.47,9.9,45.38,19,67.29,28.92,20.34,8.37,26.6,12.94,47.73,21.31,13.3,6.09,29,11.42,39.12,19.79,10.17,9.13-3.13,21.31-11.74,29.69-16.43,14.46-32.08,28.92-48.51,43.39-5.48-1.52-11-3.81-16.43-5.33-39.91-14.46-64.95-25.12-102.5-40.34-2.35-1.52-6.26-3-8.61-4.57a143.58,143.58,0,0,1-16.43-6.09c-6.26-3-11-6.09-17.21-8.37-2.35-.76-4.69-2.28-8.61-3,14.08-9.13,27.39-17.51,39.91-26.64,39.91,18.27,67.29,31.21,111.11,47.19l0.78-1.52c2.35-1.52,4.69-3.81,7-5.33,4.69-3,3.13-6.85-2.35-9.9-20.34-9.9-43.82-18.27-64.95-27.4-14.08-5.33-14.08-8.37-29.73-12.94-7.82-3-15.65-7.61-25-8.37-7,0-11.74,1.52-17.21,3-11,4.57-19.56,9.9-28.17,15.22a265.39,265.39,0,0,0-23.47,17.51c-2.35,2.28-5.48,5.33-4.69,9.13,0.78,3,5.48,6.09,10.17,8.37,10.17,6.09,21.91,10.66,32.86,16.75a46.09,46.09,0,0,1,11,3.81c3.91,2.28,8.61,3.81,12.52,5.33,43.82,19,75.9,32,124.41,48.71-11,9.9-21.13,19-32.08,28.92-9.39-3.81-19.56-6.85-29.73-9.9-21.13-8.37-29-12.18-50.08-19.79-8.61-3.81-17.21-7.61-25.82-10.66-7.82-3.81-16.43-6.85-23.47-9.9h0ZM877.94,3141.77a136.89,136.89,0,0,0-14.08-8.37c-3.91-3-7.82-5.33-11.74-8.37-15.65-9.9-31.3-19.79-44.6-30.45-7.82-5.33-16.43-12.18-18.78-19,0-4.57,4.69-8.37,9.39-12.18,10.17-6.09,22.69-12.18,35.21-18.27,13.3-4.57,26.6-10.66,40.69-13.7a61.75,61.75,0,0,1,23.47-2.28c11,2.28,18.78,8.37,27.39,12.94,14.87,8.37,29,18.27,42.25,27.4,4.69,2.28,8.61,4.57,11.74,7.61,4.69,2.28,8.61,4.57,14.08,7.61,33.65,20.55,69.64,41.1,107.2,60.89l-42.25,25.12c-39.12-20.55-75.9-41.1-111.89-63.18-18.78-12.18-35.21-24.36-55.56-34.25-6.26-3-11.74-3-18-.76-3.91,2.28-9.39,5.33-5.48,8.37,7.82,9.13,22.69,16.75,33.65,23.6,3.13,1.52,6.26,4.57,11,6.85,3.13,2.28,7.82,4.57,11.74,7.61l61,36.54c9.39,6.85,18,12.94,25.82,19,5.48,4.57,3.13,1.52,5.48,4.57,5.48,11.42-11.74,22.83-23.47,30.45-3.91,2.28-4.69,2.28-7.82,4.57a86.1,86.1,0,0,0-8.61,4.57,43.32,43.32,0,0,1-6.26,4.57,47,47,0,0,0-6.26,3c-1.56,2.28-4.69,3-6.26,3.81-9.39,5.33-22.69,10.66-36,6.09a146.51,146.51,0,0,1-27.39-11.42c-15.65-8.37-31.3-17.51-46.17-25.88-6.26-3.81-11.74-6.85-18-10.66-7.82-4.57-14.08-8.37-21.13-12.94-38.34-23.6-74.34-47.19-108.76-72.31,15.65-7.61,32.08-13.7,47.73-21.31,35.21,24.36,70.42,48.71,107.2,71.55,4.69,2.28,9.39,6.09,14.87,9.13,3.91,2.28,7.82,3.81,11.74,6.85,11.74,6.85,23.47,14.46,36,21.31,4.69,1.52,8.61,2.28,13.3,0h0.78l0.78-.76c0.78,0,.78-0.76,1.56-0.76,0-.76.78-0.76,1.56-0.76,0-1.52.78-1.52,0.78-1.52,0.78,0,.78-0.76,1.56-0.76h0.78l1.56-.76c3.91-3-2.35-6.85-5.48-9.13-18-12.18-38.34-22.83-56.34-34.25h0Zm-366.2-914.15C628.33,2494,737.1,2669.09,972.62,2835.78v91.34c-249.61-176.59-439.75-431.57-543-725.38,0,0,57.9,25.88,82.16,25.88h0Zm234-1367.8c-204.23,247.38-319.25,544.23-319.25,889,0,75.35,3.91,118.74,14.87,190.29-31.3,15.22-62.6,60.89-62.6,60.89-18-87.53-28.17-160.6-28.17-251.18,0-353.18,129.89-677.43,345.07-929.37l42.25-43.39c269.17-287,657.28-471.15,1093.13-471.15,1.57,0-39.12,38.06-55.56,76.12-421,22.83-737.88,162.13-990.62,441.47l-39.12,37.3h0ZM1823.18,3192.77c-302.82-3-554.78-82.2-788.74-235.2l54.77-46.43c224.57,147.66,442.88,208.56,734,213.12h46.17c260.57-2.28,468.71-63.94,679.19-182.68l47.73,53.28c-215.18,120.26-460.88,193.33-726.92,197.9h-46.17Zm1440.55-983.41c-111.89,318.16-329.42,580-621.29,755.07V2888.3c273.09-189.53,444.45-394.28,569.65-698.74Zm18.78-347.09c3.13-38.06,0-80.68,0-120.26,0-93.62.78-133.2-14.87-220.73l61-30.45c18,90.58,14.08,162.89,14.08,258,0,44.15,1.56,70.79-3.13,113.41h-57.12ZM2845.1,738c-243.35-223.78-600.94-364.59-905.33-364.59l-46.17-68.5c392,1.52,734.75,149.19,990.62,388.19l39.12,38.06c172.15,172,300.47,374.49,367,615l-62.6,15.22c-64.95-238.24-218.31-495.51-343.51-592.94L2845.1,738h0ZM2047.75,2435.42c0,6.09-6.26,23.6-25,23.6s-24.26-17.51-24.26-23.6c0-5.33,5.48-23.6,24.26-23.6s25,18.27,25,23.6h0Zm45.38-79.16c0,6.09-6.26,21.31-22.69,21.31-15.65,0-21.91-15.22-21.91-21.31,0-4.57,6.26-20.55,21.91-20.55,16.43,0,22.69,16,22.69,20.55h0Zm757.44-961.34c0,6.09-6.26,22.07-23.47,22.07-18,0-24.26-16-24.26-22.07,0-5.33,6.26-22.83,24.26-22.83,17.21,0,23.47,17.51,23.47,22.83h0Zm-32.86,74.59c0,4.57-6.26,20.55-21.91,20.55-16.43,0-21.13-16-21.13-20.55,0-6.09,4.69-22.07,21.13-22.07,15.65,0,21.91,16,21.91,22.07h0Zm-178.41,71.55c0,9.9-10.17,37.3-39.12,37.3s-38.34-27.4-38.34-37.3c0-9.13,9.39-37.3,38.34-37.3s39.12,28.16,39.12,37.3h0Zm43-304.46c0,4.57-5.48,19-20.34,19-15.65,0-20.34-14.46-20.34-19,0-5.33,4.69-19.79,20.34-19.79,14.87,0,20.34,14.46,20.34,19.79h0Zm302,21.31c0,9.9-9.39,36.54-38.34,36.54s-38.34-26.64-38.34-36.54c0-9.13,9.39-37.3,38.34-37.3s38.34,28.16,38.34,37.3h0ZM2529,1534.21c0,4.57-5.48,22.07-23.47,22.07-17.21,0-22.69-17.51-22.69-22.07,0-6.09,5.48-22.07,22.69-22.07,18,0,23.47,16,23.47,22.07h0Zm93.9-184.2c0,8.37-7.82,30.45-31.3,30.45s-31.3-22.07-31.3-30.45c0-7.61,7.82-30.45,31.3-30.45s31.3,22.83,31.3,30.45h0Zm-129.11-76.12c0,7.61-8.61,30.45-31.3,30.45-23.47,0-31.3-22.83-31.3-30.45,0-6.85,7.82-30.45,31.3-30.45,22.69,0,31.3,23.6,31.3,30.45h0Zm234,45.67c0,8.37-8.61,30.45-31.3,30.45-23.47,0-31.3-22.07-31.3-30.45,0-7.61,7.82-29.69,31.3-29.69,22.69,0,31.3,22.07,31.3,29.69h0Zm35.21-258c0,7.61-7,30.45-30.52,30.45-24.26,0-31.3-22.83-31.3-30.45,0-8.37,7-30.45,31.3-30.45,23.47,0,30.52,22.07,30.52,30.45h0Zm-198-69.27c0,10.66-11.74,42.62-43.82,42.62s-43-32-43-42.62c0-9.9,11-41.1,43-41.1s43.82,31.21,43.82,41.1h0Zm490.62,1277.22c0,6.09-6.26,26.64-26.6,26.64s-27.39-20.55-27.39-26.64c0-6.85,7-26.64,27.39-26.64s26.6,19.79,26.6,26.64h0ZM2615,1941.43c0,11.42-11.74,45.67-46.17,45.67s-45.38-34.25-45.38-45.67c0-10.66,11-44.15,45.38-44.15s46.17,33.49,46.17,44.15h0Zm154.15,503.12c0,9.13-9.39,37.3-39.12,37.3-28.17,0-37.56-28.16-37.56-37.3,0-9.9,9.39-38.06,37.56-38.06,29.73,0,39.12,28.16,39.12,38.06h0Zm205-328.06c0,8.37-10.17,36.54-39.12,36.54s-38.34-28.16-38.34-36.54c0-9.9,9.39-38.06,38.34-38.06s39.12,28.16,39.12,38.06h0Zm-928.8,774.09c0,12.94-12.52,51-51.64,51s-51.64-38.06-51.64-51c0-12.18,12.52-50.24,51.64-50.24s51.64,38.06,51.64,50.24h0Zm-151.8-334.15c0,7.61-7.82,28.16-29,28.16-21.91,0-29-20.55-29-28.16,0-6.85,7-28.16,29-28.16,21.13,0,29,21.31,29,28.16h0Zm254.31-12.94c0,10.66-11,42.62-44.6,42.62s-44.6-32-44.6-42.62c0-11.42,11-44.15,44.6-44.15s44.6,32.73,44.6,44.15h0Zm-154.15-226.06c0,8.37-7.82,31.21-31.3,31.21s-31.3-22.83-31.3-31.21c0-6.85,7.82-30.45,31.3-30.45s31.3,23.6,31.3,30.45h0Zm-15.65,301.42c0,7.61-7.82,30.45-30.52,30.45-24.26,0-31.3-22.83-31.3-30.45,0-6.85,7-30.45,31.3-30.45,22.69,0,30.52,23.6,30.52,30.45h0Zm-921.76-352.41c0,9.9-10.17,40.34-41.47,40.34-30.52,0-41.47-30.45-41.47-40.34,0-10.66,11-40.34,41.47-40.34,31.3,0,41.47,29.69,41.47,40.34h0ZM1000,2513.81c0,11.42-11,43.39-44.6,43.39-32.86,0-43.82-32-43.82-43.39,0-10.66,11-42.62,43.82-42.62,33.65,0,44.6,32,44.6,42.62h0ZM773.09,2333.42c0,7.61-7.82,30.45-31.3,30.45-22.69,0-31.3-22.83-31.3-30.45s8.61-30.45,31.3-30.45c23.47,0,31.3,22.83,31.3,30.45h0Zm2115-508.45c0,6.09-5.48,24.36-24.26,24.36s-25-18.27-25-24.36,6.26-24.36,25-24.36,24.26,18.27,24.26,24.36h0Zm-253.52-706.35c0,7.61-7,30.45-31.3,30.45-23.47,0-31.3-22.83-31.3-30.45s7.82-30.45,31.3-30.45c24.26,0,31.3,22.83,31.3,30.45h0Zm-347.42-529c0,10.66-11,44.15-45.38,44.15-33.65,0-46.17-33.49-46.17-44.15,0-12.18,12.52-44.91,46.17-44.91,34.43,0,45.38,32.73,45.38,44.91h0Zm352.9,235.2c0,7.61-7.82,30.45-31.3,30.45-24.26,0-31.3-22.83-31.3-30.45s7-30.45,31.3-30.45c23.47,0,31.3,22.83,31.3,30.45h0ZM1381.86,645.94c0,8.37-9.39,32.73-35.21,32.73s-34.43-24.36-34.43-32.73c0-9.13,8.61-33.49,34.43-33.49s35.21,24.36,35.21,33.49h0ZM705,1394.92c0,8.37-9.39,35-36,35s-36-26.64-36-35c0-9.13,9.39-35,36-35s36,25.88,36,35h0Zm82.16,163.65c0,9.13-9.39,36.54-36,36.54-28.17,0-37.56-27.4-37.56-36.54,0-8.37,9.39-35.77,37.56-35.77,26.6,0,36,27.4,36,35.77h0Zm593.9-494c0,9.13-11,41.1-42.25,41.1s-42.25-32-42.25-41.1c0-9.9,11-41.86,42.25-41.86s42.25,32,42.25,41.86h0ZM1144,1050.11c0,7.61-7.82,30.45-31.3,30.45s-31.3-22.83-31.3-30.45,7.82-30.45,31.3-30.45,31.3,22.83,31.3,30.45h0Zm22.69,889C1279.36,1470.27,1485.93,907.78,1862.3,397c270,379.82,438.19,815.2,546.17,1230-202.66,61.65-280.91,83.73-280.91,83.73l93.9-67.74-234.74-23.6L1862.3,754l-118.15,858.58L1511,1643.05l218.31,151.47L1713.63,1825s-258.22,60.89-547,114.17h0Zm1280.14-129.4c145.54,626.43,149.45,1109.76,149.45,1109.76s-429.58-721.57-570.43-721.57c-234,0-991.4,682.76-991.4,682.76s2.35-290.76,93.9-736.8c279.35-52.52,541.48-108.08,856-195.62,2.35-1.52,49.3,81.44,49.3,81.44v-99c126.76-35,264.48-73.07,413.15-121h0ZM1969.5,1665.89c0,8.37-7.82,31.21-32.08,31.21-25,0-32.86-22.83-32.86-31.21,0-7.61,7.82-31.21,32.86-31.21,24.26,0,32.08,23.6,32.08,31.21h0Zm-90-142.34c0,9.13-9.39,35-36,35-27.39,0-36.78-25.88-36.78-35s9.39-35.77,36.78-35.77c26.6,0,36,26.64,36,35.77h0ZM295.78,967.91c9.39,4.57,18.78,11.42,23.47,21.31,3.91,7.61,6.26,15.22,6.26,22.83,0,6.09,0,12.18-2.35,18.27a30.62,30.62,0,0,1-3.91,6.85c2.35-1.52,3.91-4.57,5.48-6.85a40.51,40.51,0,0,1,13.3-12.18c7-3.81,14.87-6.85,21.91-7.61,11.74-1.52,22.69,2.28,32.86,7.61,3.13,1.52,5.48,3,8.61,4.57a147.56,147.56,0,0,0,15.65,7.61c4.69,3.81,11,6.09,15.65,9.13,2.35,1.52,5.48,2.28,7.82,3.81l-28.17,52.52c-2.35-.76-4.69-3-7.82-3.81a178.59,178.59,0,0,1-17.21-8.37c-5.48-2.28-9.39-4.57-14.08-6.09a50,50,0,0,1-9.39-5.33c-10.17-3.81-18.78-3-27.39,3.81-7.82,7.61-13.3,16.75-19.56,25.88a22.45,22.45,0,0,1-3.13,7.61,26.67,26.67,0,0,1-3.13,6.85c-11,27.4-12.52,34.25-26.6,73.07,25,8.37,51.64,17.51,77.47,25.88-6.26,19-13.3,37.3-18.78,56.33-88.42-27.4-176.06-53.28-264.48-79.92,7.82-22.07,15.65-43.39,23.47-65.46,43.82,15.22,86.86,30.45,129.89,44.91,15.65-39.58,13.3-34.25,29-76.12,0.78-3,2.35-5.33,3.13-7.61s2.35-5.33,3.13-7.61a108.45,108.45,0,0,0,9.39-32c0.78-9.9-3.13-17.51-12.52-22.07-3.13-1.52-5.48-3.81-9.39-5.33s-7-3-11.74-5.33c-7-3-12.52-6.09-19.56-9.13a86.12,86.12,0,0,0-8.61-4.57c10.17-19.79,21.13-40.34,32.86-60.13,3.91,3,8.61,5.33,13.3,7.61,11.74,6.09,23.47,12.18,35.21,19h0Z"/><path class="cls-1" d="M1239.45,1627.07s-430.36,225.3-404.54,323.49c30.52,121.78,713.62-56.33,989.84-119.5,378.72-86.77,1118.95-326.54,1489.06-446.8,46.17-15.22,38.34,42.62,14.87,52.52C2993,1596.62,2275.45,1831.06,1908.47,1930c-356,95.91-1381.86,350.89-1498.45,191-99.38-134.72,862.29-603.6,862.29-603.6l-32.86,109.61h0Z"/></g></svg>